<?xml version="1.0" encoding="UTF-8" standalone="no"?><!DOCTYPE svg PUBLIC "-//W3C//DTD SVG 1.1//EN" "http://www.w3.org/Graphics/SVG/1.1/DTD/svg11.dtd"><svg width="100%" height="100%" viewBox="0 0 512 512" version="1.1" xmlns="http://www.w3.org/2000/svg" xmlns:xlink="http://www.w3.org/1999/xlink" xml:space="preserve" xmlns:serif="http://www.serif.com/" style="fill-rule:evenodd;clip-rule:evenodd;stroke-linejoin:round;stroke-miterlimit:1.41421;"><path d="M255.608,2c139.97,0 253.608,113.638 253.608,253.608c0,139.97 -113.638,253.608 -253.608,253.608c-139.97,0 -253.608,-113.638 -253.608,-253.608c0,-139.97 113.638,-253.608 253.608,-253.608Zm130.397,270.579c0.913,0.019 18.389,0.015 28.379,0.147c2.719,0.036 5.244,-1.402 6.601,-3.758c1.356,-2.357 1.331,-6.263 -0.066,-8.596c-12.789,-21.396 -38.768,-69.088 -39.498,-80.258c-5.768,-88.16 -72.883,-121.18 -136.957,-121.18c-49.001,0 -104.3,35.168 -123.588,87.201c-28.135,75.899 6.174,137.13 20.436,177.42c12.298,34.742 10.941,91.347 10.941,91.347c40.695,36.231 104.876,41.754 165.389,20.493c0,-46.998 4.126,-64.233 12.527,-71.477c6.112,-5.269 40.214,-2.425 48.738,-7.618c8.783,-5.351 7.248,-11.875 7.253,-36.623c0.004,-14.832 -0.265,-43.194 -0.155,-47.098Zm-130.406,-157.603c-7.949,-1.195 -16.033,-1.195 -23.982,0c-0.282,7.492 -2.527,14.34 -6.735,20.545c-3.413,1.079 -6.726,2.451 -9.902,4.101c-7.363,-1.411 -13.793,-4.666 -19.29,-9.764c-6.466,4.776 -12.181,10.491 -16.957,16.957c5.098,5.497 8.353,11.927 9.764,19.29c-1.65,3.176 -3.022,6.489 -4.101,9.902c-6.205,4.208 -13.053,6.453 -20.545,6.735c-1.195,7.949 -1.195,16.033 0,23.982c7.492,0.282 14.34,2.527 20.545,6.735c1.079,3.413 2.451,6.726 4.101,9.902c-1.411,7.363 -4.666,13.793 -9.764,19.29c4.776,6.466 10.491,12.181 16.957,16.957c5.497,-5.098 11.927,-8.353 19.29,-9.764c3.176,1.65 6.489,3.022 9.902,4.101c4.208,6.205 6.453,13.053 6.735,20.545c7.949,1.195 16.033,1.195 23.982,0c0.282,-7.492 2.527,-14.34 6.735,-20.545c3.413,-1.079 6.726,-2.451 9.902,-4.101c7.363,1.411 13.793,4.666 19.29,9.764c6.466,-4.776 12.181,-10.491 16.957,-16.957c-5.098,-5.497 -8.353,-11.927 -9.764,-19.29c1.65,-3.176 3.022,-6.489 4.101,-9.902c6.205,-4.208 13.053,-6.453 20.545,-6.735c1.195,-7.949 1.195,-16.033 0,-23.982c-7.492,-0.282 -14.34,-2.527 -20.545,-6.735c-1.079,-3.413 -2.451,-6.726 -4.101,-9.902c1.411,-7.363 4.666,-13.793 9.764,-19.29c-4.776,-6.466 -10.491,-12.181 -16.957,-16.957c-5.497,5.098 -11.927,8.353 -19.29,9.764c-3.176,-1.65 -6.489,-3.022 -9.902,-4.101c-4.208,-6.205 -6.453,-13.053 -6.735,-20.545Zm-11.991,45.883c18.696,0 33.874,15.178 33.874,33.874c0,18.696 -15.178,33.874 -33.874,33.874c-18.696,0 -33.874,-15.178 -33.874,-33.874c0,-18.696 15.178,-33.874 33.874,-33.874Z"/></svg>