<?xml version="1.0" encoding="UTF-8" standalone="no"?><!DOCTYPE svg PUBLIC "-//W3C//DTD SVG 1.1//EN" "http://www.w3.org/Graphics/SVG/1.1/DTD/svg11.dtd"><svg width="100%" height="100%" viewBox="0 0 512 512" version="1.1" xmlns="http://www.w3.org/2000/svg" xmlns:xlink="http://www.w3.org/1999/xlink" xml:space="preserve" xmlns:serif="http://www.serif.com/" style="fill-rule:evenodd;clip-rule:evenodd;stroke-linejoin:round;stroke-miterlimit:1.41421;"><path d="M168.958,512l-50.488,0c-4.899,0 -8.911,-4.028 -8.911,-8.926l0,-494.198c0,-4.899 3.976,-8.876 8.875,-8.876l50.524,0c4.899,0 8.876,3.977 8.876,8.876l0,302.911l134.326,-135.173c2.107,-2.047 3.906,-2.768 10.154,-2.759l66.228,0.109c3.348,-0.031 5.717,2.691 5.771,5.056c0.029,1.291 0.012,-0.147 0.03,1.744c0.03,3.097 -0.92,4.671 -2.454,6.217c-4.504,4.536 -15.025,15.086 -36.322,35.772c-0.002,0.001 -0.003,0.003 -0.005,0.004l-100.177,96.667c0,0 112.884,140.335 112.885,140.337c18.963,22.844 28.296,34.458 32.289,39.45c1.36,1.701 2.137,3.368 1.776,6.444c-0.221,1.878 -0.05,0.45 -0.217,1.731c-0.307,2.345 -3.172,4.566 -6.242,4.614l-65.897,0c-6.213,-0.659 -7.924,-1.746 -9.801,-4.007l-113.359,-142.55l-28.985,28.219l0,109.412c0,4.898 -3.977,8.925 -8.876,8.926Z" style="fill:#fff;"/></svg>