<?xml version="1.0" encoding="UTF-8" standalone="no"?>
<!DOCTYPE svg PUBLIC "-//W3C//DTD SVG 1.1//EN" "http://www.w3.org/Graphics/SVG/1.1/DTD/svg11.dtd">
<svg width="100%" height="100%" viewBox="0 0 512 512" version="1.1" xmlns="http://www.w3.org/2000/svg" xmlns:xlink="http://www.w3.org/1999/xlink" xml:space="preserve" xmlns:serif="http://www.serif.com/" style="fill-rule:evenodd;clip-rule:evenodd;stroke-linecap:round;stroke-linejoin:round;stroke-miterlimit:1.5;">
    <g id="Right" transform="matrix(1,0,0,1,-0.812895,6.96288)">
        <path d="M286.853,314.294L286.087,277.001L285.764,166C285.764,166 287.991,121.941 321.029,104.59C353.727,87.417 392.323,104.486 410,133C458.722,211.594 484,251 484,251" style="fill:none;stroke:white;stroke-width:13px;"/>
        <g transform="matrix(0.355039,0,0,0.355039,306.532,210.592)">
            <circle cx="251.469" cy="294.905" r="208.748" style="fill:none;stroke:white;stroke-width:36.62px;"/>
        </g>
        <g transform="matrix(0.522396,0,0,0.522396,264.446,161.237)">
            <circle cx="251.469" cy="294.905" r="208.748" style="fill:none;stroke:white;stroke-width:24.89px;"/>
        </g>
        <g transform="matrix(0.406948,0,0,0.406948,169.473,33.9512)">
            <path d="M285.764,594.791L285.764,166C285.764,166 287.991,121.941 321.029,104.59C353.727,87.417 391.996,104.691 410,133C428.004,161.309 425.311,156.692 425.311,156.692" style="fill:none;stroke:white;stroke-width:31.95px;"/>
        </g>
    </g>
    <g id="Left" transform="matrix(-1,0,0,1,512.813,6.96288)">
        <path d="M286.853,314.294L286.087,277.001L285.764,166C285.764,166 287.991,121.941 321.029,104.59C353.727,87.417 392.323,104.486 410,133C458.722,211.594 484,251 484,251" style="fill:none;stroke:white;stroke-width:13px;"/>
        <g transform="matrix(0.355039,0,0,0.355039,306.532,210.592)">
            <circle cx="251.469" cy="294.905" r="208.748" style="fill:none;stroke:white;stroke-width:36.62px;"/>
        </g>
        <g transform="matrix(0.522396,0,0,0.522396,264.446,161.237)">
            <circle cx="251.469" cy="294.905" r="208.748" style="fill:none;stroke:white;stroke-width:24.89px;"/>
        </g>
        <g transform="matrix(0.406948,0,0,0.406948,169.473,33.9512)">
            <path d="M286.087,594.791L285.764,166C285.764,166 287.991,121.941 321.029,104.59C353.727,87.417 391.996,104.691 410,133C428.004,161.309 425.311,156.692 425.311,156.692" style="fill:none;stroke:white;stroke-width:31.95px;"/>
        </g>
    </g>
    <g id="middle" transform="matrix(1,0,0,1,0.187105,6.96288)">
        <path d="M284.764,249.037L226.862,249.037L226.862,276L284.764,276" style="fill:none;stroke:white;stroke-width:13px;"/>
    </g>
    <g id="middle1" serif:id="middle" transform="matrix(1,0,0,1,0.187105,6.96288)">
        <path d="M226.862,188L284.764,188" style="fill:none;stroke:white;stroke-width:13px;"/>
    </g>
</svg>
